<svg width="40" height="34" viewBox="0 0 40 34" fill="none" xmlns="http://www.w3.org/2000/svg">
<g filter="url(#filter0_d_507_2)">
<path d="M20 20.25C22.7614 20.25 25 18.0114 25 15.25C25 12.4886 22.7614 10.25 20 10.25C17.2386 10.25 15 12.4886 15 15.25C15 18.0114 17.2386 20.25 20 20.25Z" fill="#323238"/>
<path d="M33.75 5.25H29.1406C28.9062 5.25 28.6156 5.09844 28.3891 4.85938L26.3625 1.66094C26.3304 1.61018 26.2947 1.56187 26.2555 1.51641C25.5555 0.7 24.6094 0.25 23.5938 0.25H16.4062C15.3906 0.25 14.4445 0.7 13.7445 1.51641C13.7053 1.56187 13.6695 1.61018 13.6375 1.66094L11.6109 4.86406C11.4375 5.05312 11.1937 5.25469 10.9375 5.25469V4.62969C10.9375 4.29817 10.8058 3.98022 10.5714 3.7458C10.337 3.51138 10.019 3.37969 9.6875 3.37969H7.8125C7.48098 3.37969 7.16304 3.51138 6.92862 3.7458C6.6942 3.98022 6.5625 4.29817 6.5625 4.62969V5.25469H6.25C5.25576 5.25572 4.30253 5.65114 3.59949 6.35418C2.89645 7.05722 2.50103 8.01044 2.5 9.00469V24C2.50103 24.9942 2.89645 25.9475 3.59949 26.6505C4.30253 27.3535 5.25576 27.749 6.25 27.75H33.75C34.7442 27.749 35.6975 27.3535 36.4005 26.6505C37.1035 25.9475 37.499 24.9942 37.5 24V9C37.499 8.00576 37.1035 7.05253 36.4005 6.34949C35.6975 5.64645 34.7442 5.25103 33.75 5.25ZM20 22.75C18.5166 22.75 17.0666 22.3101 15.8332 21.486C14.5999 20.6619 13.6386 19.4906 13.0709 18.1201C12.5032 16.7497 12.3547 15.2417 12.6441 13.7868C12.9335 12.332 13.6478 10.9956 14.6967 9.9467C15.7456 8.89781 17.082 8.1835 18.5368 7.89411C19.9917 7.60472 21.4997 7.75325 22.8701 8.3209C24.2406 8.88856 25.4119 9.84985 26.236 11.0832C27.0601 12.3166 27.5 13.7666 27.5 15.25C27.4977 17.2384 26.7068 19.1448 25.3008 20.5508C23.8948 21.9568 21.9884 22.7477 20 22.75Z" fill="#323238"/>
</g>
<defs>
<filter id="filter0_d_507_2" x="-1.5" y="0.25" width="43" height="35.5" filterUnits="userSpaceOnUse" color-interpolation-filters="sRGB">
<feFlood flood-opacity="0" result="BackgroundImageFix"/>
<feColorMatrix in="SourceAlpha" type="matrix" values="0 0 0 0 0 0 0 0 0 0 0 0 0 0 0 0 0 0 127 0" result="hardAlpha"/>
<feOffset dy="4"/>
<feGaussianBlur stdDeviation="2"/>
<feComposite in2="hardAlpha" operator="out"/>
<feColorMatrix type="matrix" values="0 0 0 0 0 0 0 0 0 0 0 0 0 0 0 0 0 0 0.25 0"/>
<feBlend mode="normal" in2="BackgroundImageFix" result="effect1_dropShadow_507_2"/>
<feBlend mode="normal" in="SourceGraphic" in2="effect1_dropShadow_507_2" result="shape"/>
</filter>
</defs>
</svg>
